<?xml version="1.0" standalone="no"?>
<!DOCTYPE svg PUBLIC "-//W3C//DTD SVG 20010904//EN"
 "http://www.w3.org/TR/2001/REC-SVG-20010904/DTD/svg10.dtd">
<svg version="1.0" xmlns="http://www.w3.org/2000/svg"
 width="800.000000pt" height="800.000000pt" viewBox="0 0 800.000000 800.000000"
 preserveAspectRatio="xMidYMid meet">
<metadata>
Created by potrace 1.14, written by Peter Selinger 2001-2017
</metadata>
<g transform="translate(0.000000,800.000000) scale(0.100000,-0.100000)"
fill="#000000" stroke="none">
<path d="M3764 7990 c-451 -26 -925 -139 -1354 -324 -585 -252 -1127 -666
-1532 -1171 -1085 -1354 -1168 -3263 -205 -4710 294 -442 663 -812 1102 -1107
806 -540 1785 -769 2745 -642 959 126 1835 592 2472 1314 482 545 803 1205
937 1925 72 384 85 832 35 1225 -194 1538 -1265 2829 -2741 3303 -335 108
-648 166 -1008 187 -187 11 -256 11 -451 0z m930 -1866 c28 -8 69 -25 92 -36
28 -14 52 -19 80 -16 42 6 94 -16 94 -40 0 -10 8 -7 29 8 18 12 32 16 36 10 3
-5 1 -10 -6 -10 -6 0 0 -11 15 -25 15 -14 24 -30 21 -35 -3 -6 -2 -10 4 -10 5
0 24 -29 41 -64 16 -36 34 -66 38 -68 17 -7 74 -113 89 -166 8 -31 21 -129 29
-217 7 -88 20 -199 28 -246 8 -48 12 -96 9 -107 -3 -12 2 -35 11 -53 9 -18 16
-37 16 -44 0 -7 9 -20 20 -30 19 -18 20 -17 20 3 0 11 4 23 9 26 5 3 11 30 13
61 3 30 8 58 12 62 4 5 20 -6 34 -23 15 -17 44 -50 65 -74 38 -44 45 -60 27
-60 -16 0 -12 -20 6 -27 22 -8 42 13 26 29 -7 7 -12 33 -12 59 0 37 -7 58 -35
99 -19 29 -35 58 -35 66 0 7 -11 21 -25 30 -19 13 -24 23 -22 50 2 29 6 34 27
35 21 1 22 2 5 6 -33 9 -50 53 -20 53 11 0 15 11 15 40 0 22 4 40 8 40 4 0 13
13 19 30 14 37 68 70 115 70 40 0 94 -38 115 -82 45 -92 48 -103 47 -209 0
-58 -6 -119 -12 -135 -7 -16 -17 -52 -22 -79 -32 -170 -48 -223 -112 -353 -15
-29 -83 -84 -125 -101 -26 -11 -37 -11 -63 0 -16 8 -30 20 -30 28 0 10 -3 12
-10 5 -5 -5 -16 -61 -24 -124 -21 -152 -40 -262 -61 -335 -18 -62 -23 -277
-10 -396 l7 -57 56 -11 c30 -6 65 -11 76 -12 50 -1 152 -106 155 -158 1 -8 10
-32 20 -55 11 -23 27 -77 36 -121 9 -44 23 -103 32 -132 9 -28 13 -59 10 -67
-5 -12 5 -25 32 -44 48 -33 52 -47 34 -101 -21 -61 -116 -233 -166 -298 -23
-31 -46 -63 -52 -72 -15 -24 -107 -145 -119 -156 -6 -5 -38 -43 -71 -84 -65
-81 -122 -147 -170 -196 -17 -17 -41 -45 -54 -61 -59 -75 -300 -312 -373 -366
-20 -15 -42 -33 -50 -40 -7 -7 -33 -26 -58 -43 -25 -16 -47 -32 -50 -35 -11
-11 -48 -32 -115 -66 -38 -19 -92 -47 -118 -61 -57 -30 -41 -35 -212 71 -16
10 -43 36 -60 58 -16 21 -36 45 -42 53 -7 7 -13 17 -13 22 0 4 -12 26 -26 48
-17 27 -23 32 -18 15 3 -13 13 -30 20 -38 15 -14 19 -42 7 -42 -26 1 -228 189
-335 311 -31 35 -72 82 -92 104 -19 22 -36 45 -36 51 0 7 -16 35 -35 63 -19
28 -35 54 -35 58 0 5 4 1 9 -6 6 -10 8 1 4 30 -7 52 -13 64 -13 24 0 -28 -1
-28 -15 -9 -16 22 -20 48 -5 39 13 -8 1 23 -22 57 -10 14 -18 29 -18 32 0 7
-39 66 -50 76 -25 24 -90 237 -91 299 0 44 -27 135 -28 99 -1 -11 -6 -15 -16
-12 -9 4 -15 1 -15 -7 0 -11 -2 -11 -12 0 -11 10 -8 17 14 34 26 22 26 24 21
114 -5 82 -4 93 12 99 10 4 21 1 27 -7 7 -10 8 -6 4 13 -6 28 9 47 25 31 11
-11 14 -31 24 -148 9 -117 14 -135 35 -135 12 0 18 8 18 27 0 14 7 32 16 38
22 17 20 42 -5 55 -14 8 -19 18 -16 33 3 12 0 38 -7 57 -12 35 -1 110 16 110
11 0 28 -36 28 -59 0 -26 37 -98 67 -131 13 -14 23 -28 23 -32 0 -4 23 -30 50
-58 28 -28 50 -59 50 -68 1 -9 9 -35 20 -57 11 -22 19 -45 20 -51 0 -6 16 -25
35 -43 19 -17 35 -36 35 -42 0 -6 65 -75 144 -153 112 -110 149 -153 170 -198
14 -31 26 -62 26 -67 0 -6 5 -11 10 -11 6 0 10 -6 10 -13 0 -20 40 -89 70
-122 52 -57 88 -141 125 -292 15 -62 31 -113 36 -113 17 0 20 21 5 36 -19 19
-20 31 -3 37 10 4 10 7 0 18 -15 16 -17 49 -3 49 6 0 10 -4 10 -10 0 -5 7 -10
16 -10 8 0 13 -4 9 -9 -3 -5 -1 -12 4 -15 5 -3 14 9 21 27 20 53 32 81 41 97
19 32 89 182 89 189 0 4 11 18 25 31 14 13 25 30 25 38 0 8 8 26 19 40 10 15
28 47 41 71 31 62 184 248 208 253 19 4 137 109 155 138 9 14 30 41 47 60 18
19 43 52 57 73 14 20 41 46 59 58 19 11 34 24 34 29 0 5 19 28 43 52 70 71
123 143 149 201 7 15 16 27 20 27 4 0 8 8 8 18 0 9 7 28 15 42 78 137 95 209
64 275 -12 25 -25 47 -29 50 -11 7 -33 -22 -25 -35 8 -13 -26 -13 -61 0 -25
10 -26 9 -20 -12 11 -38 25 -150 26 -205 0 -40 -8 -66 -35 -118 -20 -37 -47
-79 -60 -93 -14 -15 -25 -31 -25 -36 0 -13 -67 -94 -122 -147 -27 -25 -48 -51
-48 -57 0 -7 -4 -12 -8 -12 -12 0 -51 -30 -88 -67 -18 -18 -36 -33 -40 -33 -4
0 -22 -16 -41 -35 -19 -19 -43 -35 -53 -35 -11 0 -27 -8 -37 -18 -17 -18 -141
-61 -233 -81 -32 -7 -46 -7 -52 2 -4 6 -10 8 -14 4 -4 -4 -21 12 -38 36 -17
23 -39 51 -48 61 -10 11 -18 25 -18 32 0 7 -18 30 -40 50 -22 21 -40 45 -40
55 0 9 -5 19 -10 21 -15 5 -15 67 -1 108 12 34 100 117 141 132 10 4 27 20 37
35 10 15 26 35 37 44 16 13 17 18 5 37 -11 18 -11 24 4 40 9 10 17 24 17 30 0
6 8 16 18 22 11 7 13 13 5 16 -13 6 25 51 47 56 22 5 81 68 75 78 -9 15 -24
12 -52 -10 -14 -11 -35 -20 -47 -20 -12 0 -27 -5 -33 -11 -14 -14 -47 -4 -38
11 8 13 -18 13 -31 0 -13 -13 -87 -15 -133 -5 -28 6 -32 11 -29 33 2 15 -1 27
-7 27 -5 0 -16 4 -22 8 -17 11 -32 1 -43 -28 -12 -32 -58 -42 -77 -15 -8 11
-19 20 -25 20 -6 0 -20 8 -30 17 -17 15 -19 15 -33 -3 -14 -18 -15 -16 -9 19
5 27 3 37 -7 37 -8 1 -34 19 -58 40 l-43 40 27 10 c18 7 25 15 21 25 -3 9 1
15 11 15 13 0 13 3 3 16 -11 12 -10 18 4 32 12 12 34 17 81 17 55 0 65 3 65
18 0 12 8 17 30 17 20 0 30 5 30 15 0 8 6 15 13 15 15 0 77 66 77 83 0 7 9 23
21 35 22 24 22 24 -46 39 -32 7 -39 13 -37 29 1 11 -9 33 -23 48 -14 15 -25
31 -25 37 0 5 -9 9 -19 9 -14 0 -18 -5 -14 -20 4 -16 0 -20 -20 -20 -14 0 -27
7 -31 15 -3 9 -18 15 -35 15 -28 0 -30 3 -36 44 -8 53 3 94 32 113 19 13 24
11 57 -17 32 -28 36 -30 36 -12 0 10 10 32 22 47 18 23 26 26 56 21 20 -3 49
1 70 9 19 8 48 15 64 15 16 0 40 7 54 16 24 16 27 16 55 -5 25 -19 33 -20 45
-10 10 8 18 9 22 3 4 -6 15 -13 25 -17 9 -3 17 -16 17 -28 0 -25 -66 -94 -89
-94 -9 0 -17 -10 -19 -22 -2 -13 -7 -23 -12 -23 -12 0 -50 41 -51 54 0 6 -4 2
-8 -9 -5 -11 -5 -28 0 -37 13 -25 11 -32 -12 -46 -14 -9 -24 -10 -33 -3 -13
11 -56 -12 -56 -30 0 -11 33 -12 45 0 20 18 125 43 155 37 33 -6 70 10 70 31
0 7 7 13 15 13 7 0 18 6 22 14 4 8 30 39 56 70 47 53 77 64 77 28 0 -11 5 -9
20 8 l20 23 8 -24 c5 -13 13 -39 17 -56 3 -18 13 -33 20 -33 7 0 16 15 20 33
7 36 30 98 51 139 24 44 17 102 -21 182 -35 75 -109 159 -162 187 -16 8 -44
29 -63 46 -19 18 -40 33 -47 33 -6 0 -24 10 -40 23 -37 30 -152 89 -166 84 -5
-1 4 -19 20 -37 17 -19 34 -53 38 -75 5 -22 9 -46 11 -53 3 -14 36 -44 144
-131 50 -40 67 -61 77 -93 6 -23 17 -44 24 -48 7 -5 9 -18 5 -33 -7 -28 -39
-34 -196 -41 -47 -2 -126 -7 -176 -11 -77 -7 -92 -5 -97 8 -6 15 19 45 38 46
6 0 12 8 13 18 5 26 60 80 88 87 23 6 34 26 14 26 -5 0 -10 -4 -10 -10 0 -18
-29 -10 -41 11 -11 22 -5 34 21 42 8 2 2 3 -14 1 -16 -3 -37 -11 -46 -19 -9
-8 -22 -15 -28 -15 -6 0 -17 -6 -24 -12 -8 -7 -38 -26 -67 -41 l-53 -28 -15
20 c-18 27 -57 47 -106 54 -70 11 -77 30 -75 202 2 83 2 182 2 220 -5 208 -1
251 31 309 38 70 70 87 121 63 19 -10 41 -17 48 -17 19 0 26 -23 26 -83 0 -67
18 -102 50 -102 14 0 28 -4 32 -9 8 -13 85 -36 118 -36 14 0 38 -7 53 -15 55
-28 98 -22 212 31 17 7 48 20 70 28 31 11 35 15 16 15 -35 1 -8 29 37 37 19 4
47 13 61 20 l26 14 -32 0 c-18 0 -51 -7 -74 -17 -35 -14 -47 -14 -76 -4 -25 9
-38 10 -47 2 -10 -9 -15 -8 -19 3 -4 10 4 23 21 34 31 22 125 47 147 38 8 -3
15 -2 15 3 0 5 9 11 20 14 15 4 20 1 18 -11 -4 -22 69 -29 95 -9 18 12 16 16
-25 56 -68 67 -164 108 -273 118 -33 3 -61 6 -63 8 -9 8 55 55 70 51 10 -2 20
0 23 4 3 5 13 9 23 9 9 0 43 3 75 7 51 6 60 4 78 -15 11 -11 33 -22 49 -23 98
-6 90 -8 90 32 0 62 -43 94 -138 103 -34 3 -68 10 -75 15 -15 13 -173 7 -237
-8 -25 -6 -70 -13 -100 -16 -77 -8 -177 -42 -197 -67 -10 -12 -30 -28 -45 -36
-16 -8 -28 -20 -28 -27 0 -6 -7 -14 -15 -18 -9 -3 -15 -18 -15 -36 0 -38 -20
-47 -61 -26 -18 9 -37 16 -44 16 -7 0 -22 9 -35 20 -13 11 -36 20 -51 20 -16
0 -45 9 -65 20 -20 12 -39 19 -42 16 -8 -9 -33 15 -26 25 3 5 0 9 -6 9 -6 0
-23 13 -38 29 -16 18 -42 32 -64 36 -21 4 -38 11 -38 16 0 5 -7 9 -15 9 -25 0
-32 29 -22 89 l9 59 77 6 c107 9 184 3 208 -16 7 -6 19 -8 27 -5 8 3 22 -1 33
-8 24 -19 43 -19 43 0 0 8 7 15 15 15 8 0 15 5 15 11 0 6 6 25 14 42 13 28 21
62 29 120 1 10 7 21 12 25 14 10 18 71 6 86 -8 10 -7 17 4 26 13 10 19 10 33
-4 20 -17 47 -22 37 -6 -3 6 -1 10 4 10 6 0 11 -4 11 -10 0 -15 93 -12 116 4
16 11 28 12 60 4 38 -10 44 -9 85 19 24 17 53 33 64 35 29 7 90 0 149 -18z
m-414 -34 c0 -5 -5 -10 -11 -10 -5 0 -7 5 -4 10 3 6 8 10 11 10 2 0 4 -4 4
-10z m474 -495 c-4 -8 -12 -15 -20 -15 -17 0 -18 17 -1 23 22 9 27 7 21 -8z
m161 -15 c3 -6 -1 -7 -9 -4 -18 7 -21 14 -7 14 6 0 13 -4 16 -10z m-212 -177
c-7 -2 -21 -2 -30 0 -10 3 -4 5 12 5 17 0 24 -2 18 -5z m709 -151 c3 -11 0
-32 -8 -48 l-12 -29 -1 32 c-1 17 -4 38 -7 47 -4 10 -1 16 9 16 8 0 17 -8 19
-18z m-1802 -32 c0 -5 -7 -10 -15 -10 -8 0 -15 5 -15 10 0 6 7 10 15 10 8 0
15 -4 15 -10z m65 -10 c3 -5 -1 -10 -10 -10 -9 0 -13 5 -10 10 3 6 8 10 10 10
2 0 7 -4 10 -10z m72 -255 c-4 -8 -1 -17 4 -21 6 -4 8 -17 3 -33 -4 -14 -6
-36 -6 -48 2 -25 -71 -93 -100 -93 -12 0 -23 -11 -29 -30 -6 -16 -17 -30 -25
-30 -8 0 -14 -3 -14 -7 0 -13 -64 -47 -82 -44 -10 1 -26 -2 -36 -8 -15 -8 -21
-6 -31 12 -11 20 -17 43 -20 69 -1 4 -11 8 -23 10 -17 2 -25 14 -35 48 -12 39
-11 50 3 82 9 21 25 40 35 43 11 4 19 13 19 21 0 16 2 16 125 20 50 2 104 7
120 13 49 15 98 14 92 -4z m275 -762 c33 -30 18 -93 -23 -93 -20 0 -29 20 -29
64 0 49 18 60 52 29z m-525 -57 c36 -36 63 -94 54 -119 -5 -15 -9 -15 -22 -5
-42 34 -119 150 -119 179 0 14 44 -13 87 -55z m696 -145 c17 -17 -3 -30 -36
-24 -39 7 -52 17 -42 33 8 13 63 6 78 -9z m-288 -395 c8 -19 19 -37 25 -41 15
-9 12 -25 -5 -25 -8 0 -15 5 -15 10 0 6 -9 20 -20 32 -21 23 -27 58 -9 58 5 0
16 -15 24 -34z m1499 -82 c7 -19 8 -89 1 -82 -9 9 -23 98 -15 98 4 0 11 -7 14
-16z m53 -46 c-3 -7 -5 -2 -5 12 0 14 2 19 5 13 2 -7 2 -19 0 -25z m-2169
-239 c-15 -10 -23 14 -13 39 6 14 8 13 16 -7 7 -18 6 -27 -3 -32z m762 -625
c0 -8 7 -14 15 -14 8 0 15 -9 15 -20 0 -14 7 -20 23 -21 45 -3 52 -5 75 -12
25 -10 27 -15 8 -39 -20 -27 -102 -25 -116 2 -6 11 -19 20 -30 20 -10 0 -21 9
-25 19 -3 11 -12 22 -20 25 -21 8 -19 54 3 58 27 6 52 -3 52 -18z"/>
<path d="M5602 5468 c39 -32 87 -167 89 -253 1 -22 3 -31 6 -20 3 11 9 24 14
30 12 12 12 132 0 139 -4 3 -11 19 -14 36 -11 54 -35 80 -75 80 -30 0 -33 -2
-20 -12z"/>
<path d="M5427 4923 c-4 -3 -7 -20 -7 -36 0 -25 2 -28 15 -17 8 7 15 23 15 36
0 23 -10 31 -23 17z"/>
<path d="M4276 4075 c-6 -17 5 -26 21 -17 8 5 7 11 -2 19 -10 10 -14 9 -19 -2z"/>
<path d="M5352 3610 c0 -14 2 -19 5 -12 2 6 2 18 0 25 -3 6 -5 1 -5 -13z"/>
<path d="M3695 2547 c-72 -43 -75 -47 -117 -127 -17 -33 -48 -59 -73 -61 l-20
-1 20 -5 c11 -3 27 -14 35 -24 11 -14 29 -20 58 -21 23 0 42 -4 42 -9 0 -14
40 -10 41 4 2 19 2 20 -5 51 -6 26 -6 27 9 12 9 -9 23 -16 31 -16 8 0 14 -4
14 -8 0 -5 18 -17 40 -27 44 -20 49 -29 23 -44 -17 -10 -16 -11 4 -17 12 -3
27 -18 33 -34 11 -26 60 -78 60 -62 -1 4 -5 26 -9 50 -5 23 -5 45 0 48 8 4 77
-13 122 -31 16 -7 18 -3 15 20 -4 37 -80 82 -99 59 -6 -8 -17 -14 -24 -14 -18
0 -55 66 -55 99 0 15 -8 36 -18 47 -16 17 -42 67 -42 80 0 3 10 2 22 -2 23 -7
22 -6 -2 19 -26 28 -50 35 -50 15 0 -9 -3 -9 -12 0 -14 14 -17 14 -43 -1z"/>
<path d="M3778 2283 c7 -3 16 -2 19 1 4 3 -2 6 -13 5 -11 0 -14 -3 -6 -6z"/>
<path d="M4001 2594 c0 -11 3 -14 6 -6 3 7 2 16 -1 19 -3 4 -6 -2 -5 -13z"/>
<path d="M4050 2570 c0 -5 5 -10 10 -10 6 0 10 5 10 10 0 6 -4 10 -10 10 -5 0
-10 -4 -10 -10z"/>
</g>
</svg>
